<?xml version="1.0" encoding="iso-8859-1"?>
<!-- Uploaded to: SVG Repo, www.svgrepo.com, Generator: SVG Repo Mixer Tools -->
<svg fill="#000000" height="800px" width="800px" version="1.1" id="Layer_1" xmlns="http://www.w3.org/2000/svg" xmlns:xlink="http://www.w3.org/1999/xlink" 
	 viewBox="0 0 511.997 511.997" xml:space="preserve">
<g>
	<g>
		<g>
			<path d="M366.933,435.182V213.315h-42.667H187.733h-42.667v221.867h25.6h170.667H366.933z M256,426.649
				c-56.465,0-102.4-45.935-102.4-102.4c0-56.465,45.935-102.4,102.4-102.4s102.4,45.935,102.4,102.4
				C358.4,380.714,312.465,426.649,256,426.649z"/>
			<path d="M324.267,324.249c0-4.71,3.823-8.533,8.533-8.533h8.098c-4.011-40.252-36.113-72.354-76.365-76.365v8.098
				c0,4.71-3.823,8.533-8.533,8.533s-8.533-3.823-8.533-8.533v-8.098c-40.252,4.011-72.354,36.113-76.365,76.365h8.098
				c4.71,0,8.533,3.823,8.533,8.533s-3.823,8.533-8.533,8.533h-8.098c4.011,40.252,36.113,72.354,76.365,76.365v-8.098
				c0-4.71,3.823-8.533,8.533-8.533s8.533,3.823,8.533,8.533v8.098c40.252-4.011,72.354-36.113,76.365-76.365H332.8
				C328.09,332.782,324.267,328.959,324.267,324.249z M296.166,381.482c-1.664,1.664-3.849,2.5-6.033,2.5
				c-2.185,0-4.369-0.836-6.033-2.5l-34.133-34.133c-1.604-1.596-2.5-3.772-2.5-6.033v-59.733c0-4.71,3.823-8.533,8.533-8.533
				s8.533,3.823,8.533,8.533v56.201l31.633,31.633C299.503,372.752,299.503,378.145,296.166,381.482z"/>
			<path d="M315.733,196.249v-25.6H196.267v25.6H230.4v-8.533c0-4.71,3.823-8.533,8.533-8.533s8.533,3.823,8.533,8.533v8.533h17.067
				v-8.533c0-4.71,3.823-8.533,8.533-8.533c4.71,0,8.533,3.823,8.533,8.533v8.533H315.733z"/>
			<path d="M187.733,502.666c2.825,0.785,5.666,1.519,8.533,2.21v-27.025c0-4.719,3.823-8.533,8.533-8.533
				c4.71,0,8.533,3.814,8.533,8.533v30.507c2.833,0.478,5.675,0.896,8.533,1.28v-31.787c0-4.719,3.823-8.533,8.533-8.533
				s8.533,3.814,8.533,8.533v33.502c2.833,0.188,5.675,0.316,8.533,0.41v-33.911c0-4.719,3.823-8.533,8.533-8.533
				s8.533,3.814,8.533,8.533v33.911c2.859-0.094,5.7-0.222,8.533-0.41v-33.502c0-4.719,3.823-8.533,8.533-8.533
				s8.533,3.814,8.533,8.533v31.787c2.859-0.384,5.7-0.802,8.533-1.28v-30.507c0-4.719,3.823-8.533,8.533-8.533
				s8.533,3.814,8.533,8.533v27.025c2.867-0.691,5.709-1.425,8.533-2.21v-50.415H187.733V502.666z"/>
			<path d="M113.498,163.134c10.752,0,20.173-6.903,22.409-16.427c1.425-6.042,0.367-12.117-2.97-17.126
				c-3.362-5.035-8.695-8.474-14.643-9.446l-9.156-1.493l2.253-8.994c1.937-7.723,1.007-14.643-2.918-21.786
				c-3.362-6.101-8.627-11.025-14.831-13.841l-11.128-6.076C54.183,94.108,31.792,126.577,17.516,163.1
				c6.554,0.026,11.298,0.034,12.706,0.034H113.498z"/>
			<path d="M265.938,0.234c4.924,28.937,18.935,82.313,44.868,94.413c3.285,1.536,5.086,4.949,4.779,8.482
				c0.324,0.819,0.785,1.579,0.964,2.466l15.906,54.118c0.094,0.307-0.009,0.623,0.051,0.939c0.085,0.495,0.29,0.947,0.29,1.459
				v34.133h42.667c4.719,0,8.533,3.823,8.533,8.533v238.933c0,4.719-3.814,8.533-8.533,8.533H341.33v45.056
				c99.319-35.226,170.667-130.074,170.667-241.323C511.997,118.156,402.505,5.482,265.938,0.234z"/>
			<path d="M128,443.715V204.782c0-4.71,3.823-8.533,8.533-8.533H179.2v-34.133c0-0.521,0.205-0.973,0.299-1.459
				c0.051-0.316-0.043-0.631,0.051-0.947l16.085-54.835c0.128-0.683,0.529-1.271,0.777-1.92c-0.23-3.465,1.553-6.801,4.779-8.303
				c25.933-12.1,39.953-65.476,44.868-94.413C189.568,2.406,137.737,22.954,96.35,56.08l4.915,2.688
				c8.969,4.053,17.033,11.563,22.153,20.873c4.582,8.32,6.545,17.024,5.871,25.958c7.194,2.91,13.466,7.953,17.835,14.507
				c5.999,8.977,7.919,19.814,5.402,30.515c-4.036,17.143-20.446,29.585-39.031,29.585H30.225c-0.273,0-7.868-0.017-18.756-0.051
				C4.019,204.125,0,229.597,0,255.982c0,111.241,71.347,206.097,170.667,241.323v-45.056h-34.133
				C131.823,452.249,128,448.426,128,443.715z"/>
			<path d="M211.612,110.915l-12.484,42.667h14.208v-17.067c0-4.71,3.814-8.533,8.533-8.533c4.71,0,8.533,3.823,8.533,8.533v17.067
				h17.067v-17.067c0-4.71,3.814-8.533,8.533-8.533c4.71,0,8.533,3.823,8.533,8.533v17.067h17.067v-17.067
				c0-4.71,3.814-8.533,8.533-8.533c4.71,0,8.533,3.823,8.533,8.533v17.067h14.199l-12.518-42.667H211.612z"/>
			<path d="M228.338,93.849h55.322c-13.303-16.256-22.084-39.646-27.657-59.878C250.43,54.203,241.65,77.593,228.338,93.849z"/>
		</g>
	</g>
</g>
</svg>