<?xml version='1.0' encoding='utf-8'?>
<!DOCTYPE svg PUBLIC '-//W3C//DTD SVG 1.1//EN' 'http://www.w3.org/Graphics/SVG/1.1/DTD/svg11.dtd'>
<!-- Uploaded to: SVG Repo, www.svgrepo.com, Generator: SVG Repo Mixer Tools -->
<svg fill="#00958A" height="800px" width="800px" version="1.1" xmlns="http://www.w3.org/2000/svg" viewBox="0 0 512 512" xmlns:xlink="http://www.w3.org/1999/xlink" enable-background="new 0 0 512 512">
  <g>
    <g>
      <g>
        <path d="m448.4,501h-384.8c-11.3,0-20.4-9.1-20.4-20.4v-449.2c0-11.3 9.1-20.4 20.4-20.4h384.8c11.3,0 20.4,9.1 20.4,20.4v449.2c0,11.3-9.1,20.4-20.4,20.4zm-364.4-40.8h344v-408.4h-344v408.4z"/>
      </g>
      <g>
        <g>
          <path d="m356.2,318.6h-200.4c-11.3,0-20.4-9.1-20.4-20.4s9.1-20.4 20.4-20.4h200.3c11.3,0 20.4,9.1 20.4,20.4s-9.1,20.4-20.3,20.4z"/>
        </g>
        <g>
          <path d="m356.2,408.2h-200.4c-11.3,0-20.4-9.1-20.4-20.4s9.1-20.4 20.4-20.4h200.3c11.3,0 20.4,9.1 20.4,20.4s-9.1,20.4-20.3,20.4z"/>
        </g>
      </g>
      <g>
        <g>
          <path d="m187.6,230.7l56.2-146.2h20.8l59.8,146.2h-22l-17.1-44.3h-61.1l-16.1,44.3h-20.5zm42.2-60h49.6l-15.3-40.5c-4.7-12.3-8.1-22.4-10.4-30.3-1.9,9.4-4.5,18.7-7.9,27.9l-16,42.9z"/>
        </g>
      </g>
    </g>
  </g>
</svg>